<?xml version="1.0" encoding="UTF-8" standalone="no"?> <!-- Created with Vectornator Pro for iOS (http://vectornator.io/) --><!DOCTYPE svg PUBLIC "-//W3C//DTD SVG 1.1//EN" "http://www.w3.org/Graphics/SVG/1.1/DTD/svg11.dtd">
<svg height="100%" style="fill-rule:evenodd;clip-rule:evenodd;stroke-linecap:round;stroke-linejoin:round;" xmlns:xlink="http://www.w3.org/1999/xlink" xmlns="http://www.w3.org/2000/svg" xml:space="preserve" width="100%" xmlns:vectornator="http://vectornator.io" version="1.1" viewBox="0 0 1024 768">
<metadata>
<vectornator:setting key="RulersVisible" value="1"/>
<vectornator:setting key="OutlineMode" value="0"/>
<vectornator:setting key="GridSpacing" value="36"/>
<vectornator:setting key="Units" value="Pixels"/>
<vectornator:setting key="DynamicGuides" value="0"/>
<vectornator:setting key="SnapToPoints" value="0"/>
<vectornator:setting key="CMYKEnabledKey" value="0"/>
<vectornator:setting key="SnapToGrid" value="0"/>
<vectornator:setting key="ShowGrid" value="1"/>
<vectornator:setting key="SnapToEdges" value="0"/>
</metadata>
<defs>
<linearGradient y1="425.523" id="LinearGradient" x1="330.965" y2="425.523" x2="612.055" gradientUnits="userSpaceOnUse" gradientTransform="matrix(0.762302 0 0 0.843377 117.533 -124.596)">
<stop stop-opacity="0.796153" stop-color="#07aee6" offset="0"/>
<stop stop-opacity="0.727749" stop-color="#35ed6d" offset="1"/>
</linearGradient>
<linearGradient y1="607.682" id="LinearGradient_2" x1="19.4239" y2="607.682" x2="259.457" gradientUnits="userSpaceOnUse" gradientTransform="matrix(1 0 0 1 0 0)">
<stop stop-color="#fff450" offset="0"/>
<stop stop-color="#e35d5d" offset="1"/>
</linearGradient>
<linearGradient y1="347.461" id="LinearGradient_3" x1="205.917" y2="347.461" x2="392.626" gradientUnits="userSpaceOnUse" gradientTransform="matrix(1 0 0 1 562.353 312.72)">
<stop stop-color="#fff342" offset="0"/>
<stop stop-color="#0999fc" offset="0.983333"/>
</linearGradient>
<linearGradient y1="127.217" id="LinearGradient_4" x1="454.357" y2="127.217" x2="585.98" gradientUnits="userSpaceOnUse" gradientTransform="matrix(1 0 0 1 0 0)">
<stop stop-opacity="0.420732" stop-color="#3935da" offset="0"/>
<stop stop-color="#e35d5d" offset="1"/>
</linearGradient>
<linearGradient y1="286.336" id="LinearGradient_5" x1="3.55377" y2="286.336" x2="177.361" gradientUnits="userSpaceOnUse" gradientTransform="matrix(1 0 0 1 0 0)">
<stop stop-color="#3935da" offset="0"/>
<stop stop-color="#e35d5d" offset="1"/>
</linearGradient>
<linearGradient y1="468.473" id="LinearGradient_6" x1="837.414" y2="463.661" x2="962.983" gradientUnits="userSpaceOnUse" gradientTransform="matrix(0.697192 0 0 1 273.713 64.8252)">
<stop stop-color="#3935da" offset="0"/>
<stop stop-color="#e35d5d" offset="1"/>
</linearGradient>
<linearGradient y1="122.821" id="LinearGradient_7" x1="417.483" y2="122.821" x2="417.483" gradientUnits="userSpaceOnUse" gradientTransform="matrix(1 0 0 1 0 0)">
<stop stop-opacity="0.513089" stop-color="#c24cb9" offset="0"/>
<stop stop-opacity="0.727749" stop-color="#ff4915" offset="1"/>
</linearGradient>
<linearGradient y1="419.976" id="LinearGradient_8" x1="177.815" y2="419.976" x2="317.048" gradientUnits="userSpaceOnUse" gradientTransform="matrix(1 0 0 1 -30.2388 -277.087)">
<stop stop-opacity="0.796153" stop-color="#42bf68" offset="0"/>
<stop stop-color="#f7ea8c" offset="0.962963"/>
</linearGradient>
<linearGradient y1="419.976" id="LinearGradient_9" x1="177.815" y2="419.976" x2="317.048" gradientUnits="userSpaceOnUse" gradientTransform="matrix(1 0 0 1 362.134 -2.44436)">
<stop stop-color="#5c59dc" offset="0"/>
<stop stop-opacity="0.727749" stop-color="#8ef0ac" offset="1"/>
</linearGradient>
<linearGradient y1="137.468" id="LinearGradient_10" x1="426.564" y2="137.468" x2="618.542" gradientUnits="userSpaceOnUse" gradientTransform="matrix(-0.829574 -0.558397 0.558397 -0.829574 1204.3 548.962)">
<stop stop-opacity="0.796153" stop-color="#e87129" offset="0.0111111"/>
<stop stop-opacity="0.789155" stop-color="#f78cd9" offset="0.962963"/>
</linearGradient>
<linearGradient y1="194.177" id="LinearGradient_11" x1="88.2017" y2="194.177" x2="228.023" gradientUnits="userSpaceOnUse" gradientTransform="matrix(-0.00549676 0.999985 -2.57701 -0.0141654 667.095 60.5538)">
<stop stop-color="#ff4242" offset="0"/>
<stop stop-color="#ffffff" offset="1"/>
</linearGradient>
<linearGradient y1="194.177" id="LinearGradient_12" x1="88.2017" y2="194.177" x2="171.587" gradientUnits="userSpaceOnUse" gradientTransform="matrix(-0.00549676 0.999985 -2.57701 -0.0141654 667.095 60.5538)">
<stop stop-color="#ff4242" offset="0"/>
<stop stop-color="#ffffff" offset="1"/>
</linearGradient>
<linearGradient y1="416.287" id="LinearGradient_13" x1="445.938" y2="416.287" x2="539.369" gradientUnits="userSpaceOnUse" gradientTransform="matrix(1 0 0 1 -349.934 -276.262)">
<stop stop-opacity="0.796153" stop-color="#f8ff2f" offset="0"/>
<stop stop-opacity="0.727749" stop-color="#ff9945" offset="0.987037"/>
</linearGradient>
<linearGradient y1="508.586" id="LinearGradient_14" x1="129.726" y2="508.586" x2="267.609" gradientUnits="userSpaceOnUse" gradientTransform="matrix(1 0 0 1 3.87051 20.5188)">
<stop stop-opacity="0.796153" stop-color="#bf8b42" offset="0"/>
<stop stop-opacity="0.727749" stop-color="#ff4915" offset="1"/>
</linearGradient>
<linearGradient y1="366.35" id="LinearGradient_15" x1="678.8" y2="366.35" x2="773.664" gradientUnits="userSpaceOnUse" gradientTransform="matrix(1 0 0 1 56.3056 -125.516)">
<stop stop-color="#3935da" offset="0"/>
<stop stop-color="#e35d5d" offset="1"/>
</linearGradient>
<linearGradient y1="566.276" id="LinearGradient_16" x1="672.775" y2="566.276" x2="774.857" gradientUnits="userSpaceOnUse" gradientTransform="matrix(1 0 0 1 54.0372 49.6893)">
<stop stop-opacity="0.796153" stop-color="#07aee6" offset="0"/>
<stop stop-opacity="0.727749" stop-color="#35ed6d" offset="1"/>
</linearGradient>
<linearGradient y1="566.276" id="LinearGradient_17" x1="672.775" y2="566.276" x2="774.857" gradientUnits="userSpaceOnUse" gradientTransform="matrix(1 0 0 1 -97.2602 30.6986)">
<stop stop-opacity="0.796153" stop-color="#bf8b42" offset="0"/>
<stop stop-opacity="0.727749" stop-color="#ff4915" offset="1"/>
</linearGradient>
<linearGradient y1="194.177" id="LinearGradient_18" x1="88.2017" y2="194.177" x2="228.023" gradientUnits="userSpaceOnUse" gradientTransform="matrix(-0.00241754 0.579054 -1.1334 -0.00820266 992.626 73.3655)">
<stop stop-opacity="0.796153" stop-color="#07aee6" offset="0"/>
<stop stop-opacity="0.727749" stop-color="#35ed6d" offset="1"/>
</linearGradient>
<linearGradient y1="194.177" id="LinearGradient_19" x1="88.2017" y2="194.177" x2="171.587" gradientUnits="userSpaceOnUse" gradientTransform="matrix(-0.00241754 0.579054 -1.1334 -0.00820266 992.626 73.3655)">
<stop stop-opacity="0.796153" stop-color="#07aee6" offset="0"/>
<stop stop-opacity="0.727749" stop-color="#35ed6d" offset="1"/>
</linearGradient>
<linearGradient y1="194.177" id="LinearGradient_20" x1="88.2017" y2="194.177" x2="228.023" gradientUnits="userSpaceOnUse" gradientTransform="matrix(-0.00375323 1.14973 -1.7596 -0.0162866 908.056 487.577)">
<stop stop-opacity="0.796153" stop-color="#42bf68" offset="0"/>
<stop stop-color="#f7ea8c" offset="0.962963"/>
</linearGradient>
<linearGradient y1="194.177" id="LinearGradient_21" x1="88.2017" y2="194.177" x2="171.587" gradientUnits="userSpaceOnUse" gradientTransform="matrix(-0.00375323 1.14973 -1.7596 -0.0162866 908.056 487.577)">
<stop stop-opacity="0.796153" stop-color="#42bf68" offset="0"/>
<stop stop-color="#f7ea8c" offset="0.962963"/>
</linearGradient>
<linearGradient y1="394.168" id="LinearGradient_22" x1="323.237" y2="394.168" x2="368.968" gradientUnits="userSpaceOnUse" gradientTransform="matrix(1 0 0 2.89412 187.734 -725.298)">
<stop stop-color="#3935da" offset="0"/>
<stop stop-color="#e35d5d" offset="1"/>
</linearGradient>
<linearGradient y1="429.425" id="LinearGradient_23" x1="380.707" y2="429.425" x2="503.398" gradientUnits="userSpaceOnUse" gradientTransform="matrix(1 0 0 1 141.671 -271.106)">
<stop stop-opacity="0.796153" stop-color="#bf8b42" offset="0"/>
<stop stop-opacity="0.727749" stop-color="#ff4915" offset="1"/>
</linearGradient>
<linearGradient y1="592.025" id="LinearGradient_24" x1="398.263" y2="592.025" x2="487.129" gradientUnits="userSpaceOnUse" gradientTransform="matrix(1 0 0 1 45.721 16.099)">
<stop stop-opacity="0.796153" stop-color="#f8ff2f" offset="0"/>
<stop stop-opacity="0.727749" stop-color="#ff9945" offset="0.987037"/>
</linearGradient>
<linearGradient y1="593.956" id="LinearGradient_25" x1="387.96" y2="593.956" x2="472.962" gradientUnits="userSpaceOnUse" gradientTransform="matrix(1 0 0 1 56.6683 43.7892)">
<stop stop-opacity="0.796153" stop-color="#f8ff2f" offset="0"/>
<stop stop-opacity="0.727749" stop-color="#ff9945" offset="0.987037"/>
</linearGradient>
<linearGradient y1="696.346" id="LinearGradient_26" x1="366.065" y2="696.346" x2="367.353" gradientUnits="userSpaceOnUse" gradientTransform="matrix(1 0 0 1 0 0)">
<stop stop-opacity="0.796153" stop-color="#f8ff2f" offset="0"/>
<stop stop-opacity="0.727749" stop-color="#ff9945" offset="0.987037"/>
</linearGradient>
<linearGradient y1="240.906" id="LinearGradient_27" x1="563.847" y2="240.906" x2="564.962" gradientUnits="userSpaceOnUse" gradientTransform="matrix(1 0 0 1 0 0)">
<stop stop-opacity="0.796153" stop-color="#07aee6" offset="0"/>
<stop stop-opacity="0.727749" stop-color="#35ed6d" offset="1"/>
</linearGradient>
<linearGradient y1="409.135" id="LinearGradient_28" x1="415.674" y2="409.135" x2="512.958" gradientUnits="userSpaceOnUse" gradientTransform="matrix(-0.999903 -0.0139006 0.0245281 -1.76436 1026.31 968.457)">
<stop stop-opacity="0.796153" stop-color="#07aee6" offset="0"/>
<stop stop-opacity="0.727749" stop-color="#35ed6d" offset="1"/>
</linearGradient>
</defs>
<g id="Layer 3" vectornator:layerName="Layer 3">
<path stroke="#fff437" stroke-width="2.26" d="M73.8424-11.5578L73.0751+799.17" fill="none" stroke-linecap="round" opacity="1" stroke-linejoin="round"/>
<path stroke="#fff437" stroke-width="2.26" d="M73.8424-11.5718L73.0751+798.391" fill="none" stroke-linecap="round" opacity="1" stroke-linejoin="round"/>
<path stroke="#fff437" stroke-width="2.26" d="M73.8424-11.5718L73.0751+798.391" fill="none" stroke-linecap="round" opacity="1" stroke-linejoin="round"/>
<path stroke="#fff437" stroke-width="2.26" d="M73.8424-11.5718L73.0751+798.391" fill="none" stroke-linecap="round" opacity="1" stroke-linejoin="round"/>
<path stroke="#fff437" stroke-width="2.26" d="M1008.3-20.9712L1007.53+788.991" fill="none" stroke-linecap="round" opacity="1" stroke-linejoin="round"/>
<path stroke="#fff437" stroke-width="2.26" d="M937.02-20.1879L936.252+789.775" fill="none" stroke-linecap="round" opacity="1" stroke-linejoin="round"/>
<path stroke="#fff437" stroke-width="2.26" d="M864.174-7.6554L863.407+802.307" fill="none" stroke-linecap="round" opacity="1" stroke-linejoin="round"/>
<path stroke="#fff437" stroke-width="2.26" d="M790.546-13.9217L789.779+796.041" fill="none" stroke-linecap="round" opacity="1" stroke-linejoin="round"/>
<path stroke="#fff437" stroke-width="2.26" d="M717.701-15.4882L716.933+794.474" fill="none" stroke-linecap="round" opacity="1" stroke-linejoin="round"/>
<path stroke="#fff437" stroke-width="2.26" d="M645.639-20.1879L644.871+789.775" fill="none" stroke-linecap="round" opacity="1" stroke-linejoin="round"/>
<path stroke="#fff437" stroke-width="2.26" d="M647.205-17.0548L646.438+792.908" fill="none" stroke-linecap="round" opacity="1" stroke-linejoin="round"/>
<path stroke="#fff437" stroke-width="2.26" d="M575.143-20.9712L574.376+788.991" fill="none" stroke-linecap="round" opacity="1" stroke-linejoin="round"/>
<path stroke="#fff437" stroke-width="2.26" d="M503.864-17.8381L503.097+792.124" fill="none" stroke-linecap="round" opacity="1" stroke-linejoin="round"/>
<path stroke="#fff437" stroke-width="2.26" d="M433.369-8.43868L432.602+801.524" fill="none" stroke-linecap="round" opacity="1" stroke-linejoin="round"/>
<path stroke="#fff437" stroke-width="2.26" d="M-1.35271-2.94173L-0.177788+807.786" fill="none" stroke-linecap="round" opacity="1" stroke-linejoin="round"/>
<path stroke="#fff437" stroke-width="2.26" d="M-1.35271-2.96384L-0.177788+806.999" fill="none" stroke-linecap="round" opacity="1" stroke-linejoin="round"/>
<path stroke="#fff437" stroke-width="2.26" d="M142.771-26.3511L143.946+810.919" fill="none" stroke-linecap="round" opacity="1" stroke-linejoin="round"/>
<path stroke="#fff437" stroke-width="2.26" d="M142.771-26.3511L143.946+810.129" fill="none" stroke-linecap="round" opacity="1" stroke-linejoin="round"/>
<path stroke="#fff437" stroke-width="2.26" d="M361.307-37.3171L362.482+799.163" fill="none" stroke-linecap="round" opacity="1" stroke-linejoin="round"/>
<path stroke="#fff437" stroke-width="2.26" d="M216.4-23.3071L218.75+787.421" fill="none" stroke-linecap="round" opacity="1" stroke-linejoin="round"/>
<path stroke="#fff437" stroke-width="2.26" d="M216.4-23.3099L218.75+786.652" fill="none" stroke-linecap="round" opacity="1" stroke-linejoin="round"/>
<path stroke="#fff437" stroke-width="2.26" d="M286.895-25.6598L289.245+784.303" fill="none" stroke-linecap="round" opacity="1" stroke-linejoin="round"/>
<path stroke="#000000" stroke-width="0.99" d="M470.183+858.7L474.1+856.35" fill="none" stroke-linecap="round" opacity="1" stroke-linejoin="round"/>
<path stroke="#fff437" stroke-width="2.26" d="M-16.2351+73.8507L1049.03+73.0674" fill="none" stroke-linecap="round" opacity="1" stroke-linejoin="round"/>
<path stroke="#fff437" stroke-width="2.26" d="M-17.8017+141.213L1047.46+140.43" fill="none" stroke-linecap="round" opacity="1" stroke-linejoin="round"/>
<path stroke="#fff437" stroke-width="2.26" d="M-25.6345+214.842L1039.63+214.058" fill="none" stroke-linecap="round" opacity="1" stroke-linejoin="round"/>
<path stroke="#fff437" stroke-width="2.26" d="M-28.7676+285.337L1036.5+284.554" fill="none" stroke-linecap="round" opacity="1" stroke-linejoin="round"/>
<path stroke="#fff437" stroke-width="2.26" d="M-27.201+358.182L1038.06+357.399" fill="none" stroke-linecap="round" opacity="1" stroke-linejoin="round"/>
<path stroke="#fff437" stroke-width="2.26" d="M-22.5013+429.461L1042.76+428.678" fill="none" stroke-linecap="round" opacity="1" stroke-linejoin="round"/>
<path stroke="#fff437" stroke-width="2.26" d="M-14.6685+503.873L1050.6+503.089" fill="none" stroke-linecap="round" opacity="1" stroke-linejoin="round"/>
<path stroke="#fff437" stroke-width="2.26" d="M-14.6685+573.585L1050.6+572.802" fill="none" stroke-linecap="round" opacity="1" stroke-linejoin="round"/>
<path stroke="#fff437" stroke-width="2.26" d="M-20.1515+650.347L1045.11+649.563" fill="none" stroke-linecap="round" opacity="1" stroke-linejoin="round"/>
<path stroke="#fff437" stroke-width="2.26" d="M-18.5849+719.275L1046.68+718.492" fill="none" stroke-linecap="round" opacity="1" stroke-linejoin="round"/>
<path stroke="#fff437" stroke-width="2.26" d="M-27.9843+795.254L1037.28+794.471" fill="none" stroke-linecap="round" opacity="1" stroke-linejoin="round"/>
</g>
<g id="Layer 2" vectornator:layerName="Layer 2">
<path d="M563.059+276.941C552.751+301.507+515.973+256.384+492.803+265.764C469.632+275.144+460.351+338.898+437.795+327.314C415.24+315.729+397.035+293.886+388.423+267.845C379.81+241.805+380.908+211.883+391.544+186.534C402.181+161.184+422.237+140.725+446.147+131.046C470.057+121.366+497.53+122.599+520.806+134.553C544.081+146.508+562.866+169.048+571.754+195.92C580.641+222.792+579.509+253.668+568.533+279.827C557.557+305.985+522.94+273.913+498.267+283.901C473.594+293.889+459.164+345.801+435.146+333.466C411.128+321.13+391.743+297.87+382.572+270.141C373.401+242.411+374.569+210.55+385.896+183.556C397.222+156.563+418.579+134.777+444.04+124.47C469.5+114.163+498.755+115.476+523.539+128.205C548.324+140.935+568.328+164.937+577.791+193.551C587.255+222.166+586.049+255.044+574.362+282.899C562.674+310.754+502.136+235.178+475.863+245.814C449.59+256.45+457.901+353.152+432.325+340.017C406.749+326.881+386.107+302.112+376.342+272.585C366.576+243.057+367.82+209.13+379.881+180.386" stroke="#000000" stroke-width="0.109287" fill="url(#LinearGradient)" opacity="1"/>
<path d="M227.128+666.119C211.568+688.74+186.716+704.914+159.505+709.946C132.294+714.978+103.057+708.793+80.0778+692.987C57.0989+677.18+40.6694+651.935+35.5577+624.294C30.4461+596.652+36.7286+566.951+52.7853+543.609C68.8421+520.266+94.4866+503.576+122.566+498.384C150.645+493.191+180.816+499.573+204.528+515.884C228.24+532.195+245.194+558.246+250.469+586.769C255.744+615.293+249.261+645.942+232.692+670.029C216.123+694.117+189.66+711.339+160.684+716.698C131.709+722.056+100.575+715.47+76.106+698.639C51.637+681.807+34.1421+654.925+28.6989+625.491C23.2558+596.057+29.9457+564.43+47.0437+539.574C64.1417+514.718+91.4492+496.946+121.349+491.416C151.25+485.887+183.377+492.683+208.627+510.052C233.877+527.42+251.93+555.16+257.547+585.534C263.164+615.907+256.26+648.543+238.617+674.193C220.973+699.843+192.794+718.182+161.94+723.887C131.085+729.593+97.9325+722.58+71.8767+704.657C45.8209+686.734+27.1914+658.109+21.3953+626.766C15.5992+595.423+22.723+561.746+40.9297+535.278" stroke="#000000" stroke-width="0.109287" fill="url(#LinearGradient_2)" opacity="1"/>
<path d="M895.557+734.104C875.911+742.801+852.716+743.391+832.516+735.588C812.317+727.784+795.366+711.674+786.531+691.717C777.697+671.76+777.097+648.198+785.024+627.679C792.951+607.16+809.316+589.94+829.589+580.966C849.862+571.991+873.798+571.383+894.642+579.435C915.486+587.487+932.978+604.112+942.094+624.705C951.211+645.299+951.829+669.614+943.649+690.788C935.47+711.962+918.582+729.731+897.662+738.992C876.742+748.252+852.043+748.88+830.534+740.571C809.024+732.262+790.974+715.107+781.567+693.856C772.159+672.605+771.521+647.514+779.962+625.665C788.403+603.815+805.829+585.479+827.417+575.922C849.004+566.366+874.492+565.718+896.688+574.292C918.883+582.867+937.51+600.569+947.217+622.498C956.925+644.428+957.584+670.319+948.873+692.866C940.163+715.413+922.18+734.335+899.904+744.196C877.627+754.057+851.326+754.726+828.422+745.878C805.518+737.03+786.297+718.762+776.28+696.133C766.262+673.504+765.583+646.787+774.571+623.52C783.559+600.253+802.116+580.728+825.103+570.552" stroke="#000000" stroke-width="0.109287" fill="url(#LinearGradient_3)" opacity="1"/>
<path d="M466.706+150.297C460.796+136.088+460.749+119.468+466.663+105.129C472.578+90.7906+484.389+78.9122+498.823+72.9084C513.257+66.9047+530.14+66.8566+544.706+72.8648C559.272+78.8731+571.339+90.871+577.437+105.534C583.536+120.197+583.585+137.347+577.482+152.143C571.378+166.94+559.19+179.197+544.295+185.392C529.401+191.588+511.979+191.638+496.948+185.438C481.917+179.237+469.466+166.857+463.172+151.726C456.879+136.595+456.828+118.898+463.127+103.629C469.425+88.3604+482.002+75.7116+497.372+69.3186C512.742+62.9255+530.72+62.8742+546.23+69.2721C561.741+75.67+574.59+88.4459+581.084+104.06C587.578+119.673+587.63+137.936+581.131+153.692C574.632+169.447+561.654+182.5+545.793+189.097C529.932+195.694+511.381+195.747+495.375+189.145C479.37+182.543+466.111+169.359+459.409+153.247C452.708+137.135+452.654+118.29+459.361+102.031C466.067+85.7725+479.46+72.3035+495.827+65.4959C512.194+58.6882+531.337+58.6336+547.853+65.4465C564.37+72.2593+578.052+85.8636+584.967+102.49" stroke="#000000" stroke-width="0.109287" fill="url(#LinearGradient_4)" opacity="1"/>
<path d="M51.9891+221.009C69.3462+211.121+90.7472+208.399+110.164+213.722C129.582+219.045+146.774+232.357+156.819+249.989C166.863+267.621+169.629+289.36+164.221+309.085C158.814+328.81+145.291+346.274+127.38+356.478C109.469+366.682+87.3853+369.491+67.3483+363.998C47.3113+358.505+29.5705+344.768+19.2052+326.573C8.83983+308.379+5.98632+285.945+11.5661+265.591C17.1459+245.237+31.1003+227.215+49.583+216.686C68.0657+206.156+90.8545+203.258+111.531+208.926C132.207+214.594+150.514+228.769+161.211+247.544C171.907+266.32+174.851+289.469+169.093+310.473C163.336+331.477+148.936+350.074+129.863+360.939C110.791+371.805+87.2746+374.796+65.9382+368.947C44.6019+363.098+25.7107+348.47+14.6732+329.096C3.63563+309.721+0.597062+285.833+6.53871+264.159C12.4804+242.484+27.3396+223.294+47.0209+212.082C66.7022+200.87+90.9687+197.783+112.986+203.819C135.003+209.854+154.497+224.949+165.887+244.942C177.277+264.935+180.413+289.585+174.281+311.951C168.15+334.317+152.817+354.12+132.507+365.69" stroke="#000000" stroke-width="0.109287" fill="url(#LinearGradient_5)" opacity="1"/>
<path d="M890.32+596.528L862.931+528.486L835.542+460.443L890.32+460.443L945.097+460.443L917.709+528.486L890.32+596.528Z" stroke="#000000" stroke-width="0.109287" fill="url(#LinearGradient_6)" opacity="1"/>
</g>
<g id="Layer 1" vectornator:layerName="Layer 1">
<path d="M417.483+122.821" stroke="#000000" stroke-width="5" fill="url(#LinearGradient_7)" opacity="1" stroke-linejoin="round"/>
<path d="M147.576+73.8813L286.809+73.8813L286.809+211.898L147.576+211.898L147.576+73.8813Z" opacity="1" fill="url(#LinearGradient_8)"/>
<path d="M539.949+348.523L679.182+348.523L679.182+486.54L539.949+486.54L539.949+348.523Z" opacity="1" fill="url(#LinearGradient_9)"/>
<path d="M898.539+67.397L939.227+178.851L845.8+251.989L747.372+185.736L779.967+71.6516L898.539+67.397Z" opacity="1" fill="url(#LinearGradient_10)"/>
<path d="M821.866+243.889C821.866+218.201+844.303+197.376+871.981+197.376C899.658+197.376+922.095+218.201+922.095+243.889C922.095+269.577+899.658+290.401+871.981+290.401C844.303+290.401+821.866+269.577+821.866+243.889Z" fill-opacity="0.796153" fill="#edbf7f" opacity="1"/>
<g vectornator:shadowOffset="10" vectornator:shadowOpacity="0.333" vectornator:shadowAngle="1.5708" vectornator:shadowColor="#000000" opacity="1" vectornator:shadowRadius="10">
<path d="M280.836+188.424C280.962+165.394+229.925+146.354+166.483+146.005C103.04+145.656+51.2586+164.132+51.132+187.162L50.8229+243.402C50.6963+266.432+102.271+285.476+165.714+285.824C229.157+286.173+280.4+267.695+280.527+244.665L280.836+188.424Z" stroke="#000000" stroke-width="0.17289" fill="url(#LinearGradient_11)" opacity="1"/>
<path stroke="#000000" vectornator:shadowColor="#000000" vectornator:shadowOpacity="0.277487" vectornator:shadowRadius="0.701403" d="M166.214+146.004C229.645+146.352+280.963+165.301+280.836+188.327C280.71+211.353+229.186+229.736+165.755+229.387C102.324+229.039+51.006+210.09+51.1325+187.064C51.2591+164.038+102.783+145.655+166.214+146.004Z" vectornator:shadowOffset="1.07527" fill="url(#LinearGradient_12)" stroke-width="0.109287" opacity="1" vectornator:shadowAngle="0.135352"/>
</g>
<path d="M142.72+186.741L126.204+156.542L96.0045+140.025L126.204+123.509L142.72+93.3094L159.237+123.509L189.436+140.025L159.237+156.542L142.72+186.741Z" opacity="1" fill="url(#LinearGradient_13)"/>
<path d="M202.538+594.673L181.234+551.506L133.596+544.583L168.067+510.983L159.93+463.537L202.538+485.938L245.146+463.537L237.009+510.983L271.48+544.584L223.842+551.506L202.538+594.673Z" opacity="1" fill="url(#LinearGradient_14)"/>
<path d="M782.538+295.604L768.845+264.55L735.105+268.219L755.153+240.834L735.105+213.449L768.845+217.118L782.538+186.064L796.23+217.118L829.97+213.449L809.923+240.834L829.97+268.219L796.23+264.55L782.538+295.604Z" opacity="1" fill="url(#LinearGradient_15)"/>
<path d="M777.853+665.726L766.495+636.957L736.921+646.015L752.332+619.197L726.812+601.723L757.387+597.052L755.137+566.203L777.853+587.196L800.568+566.203L798.319+597.052L828.894+601.723L803.373+619.197L818.785+646.015L789.211+636.957L777.853+665.726Z" opacity="1" fill="url(#LinearGradient_16)"/>
<path d="M626.555+646.736L615.198+617.966L585.624+627.024L601.035+600.207L575.514+582.732L606.089+578.061L603.84+547.213L626.555+568.205L649.271+547.213L647.021+578.061L677.596+582.732L652.076+600.207L667.487+627.024L637.913+617.966L626.555+646.736Z" opacity="1" fill="url(#LinearGradient_17)"/>
<g vectornator:shadowOffset="10" vectornator:shadowOpacity="0.333" vectornator:shadowAngle="1.5708" vectornator:shadowColor="#000000" opacity="1" vectornator:shadowRadius="10">
<path d="M822.745+147.411C822.8+134.075+800.354+123.049+772.451+122.847C744.548+122.645+721.774+133.344+721.718+146.679L721.582+179.246C721.527+192.582+744.21+203.609+772.113+203.811C800.016+204.013+822.553+193.313+822.609+179.977L822.745+147.411Z" stroke="#000000" stroke-width="0.17289" fill="url(#LinearGradient_18)" opacity="1"/>
<path stroke="#000000" vectornator:shadowColor="#000000" vectornator:shadowOpacity="0.277487" vectornator:shadowRadius="0.701403" d="M772.333+122.846C800.23+123.048+822.801+134.021+822.745+147.354C822.689+160.687+800.029+171.333+772.131+171.131C744.233+170.929+721.663+159.956+721.719+146.623C721.774+133.29+744.435+122.644+772.333+122.846Z" vectornator:shadowOffset="1.07527" fill="url(#LinearGradient_19)" stroke-width="0.109287" opacity="1" vectornator:shadowAngle="0.135352"/>
</g>
<g vectornator:shadowOffset="10" vectornator:shadowOpacity="0.333" vectornator:shadowAngle="1.5708" vectornator:shadowColor="#000000" opacity="1" vectornator:shadowRadius="10">
<path d="M644.315+634.596C644.401+608.117+609.552+586.225+566.233+585.825C522.914+585.424+487.557+606.665+487.471+633.144L487.26+697.806C487.173+724.285+522.389+746.18+565.708+746.581C609.028+746.982+644.017+725.737+644.103+699.258L644.315+634.596Z" stroke="#000000" stroke-width="0.17289" fill="url(#LinearGradient_20)" opacity="1"/>
<path stroke="#000000" vectornator:shadowColor="#000000" vectornator:shadowOpacity="0.277487" vectornator:shadowRadius="0.701403" d="M566.05+585.823C609.361+586.224+644.401+608.01+644.315+634.484C644.228+660.958+609.048+682.094+565.737+681.693C522.425+681.292+487.385+659.506+487.471+633.032C487.558+606.558+522.738+585.422+566.05+585.823Z" vectornator:shadowOffset="1.07527" fill="url(#LinearGradient_21)" stroke-width="0.109287" opacity="1" vectornator:shadowAngle="0.135352"/>
</g>
<path d="M533.837+358.162L545.269+415.471L556.702+472.779L533.837+472.779L510.972+472.779L522.404+415.471L533.837+358.162Z" opacity="1" fill="url(#LinearGradient_22)"/>
<path d="M583.723+211.445L553.05+158.319L522.378+105.192L583.723+105.192L645.068+105.192L614.396+158.319L583.723+211.445Z" opacity="1" fill="url(#LinearGradient_23)"/>
<path d="M488.417+652.557L472.708+623.833L443.984+608.123L472.708+592.414L488.417+563.69L504.127+592.414L532.85+608.123L504.127+623.833L488.417+652.557Z" opacity="1" fill="url(#LinearGradient_24)"/>
<path d="M487.129+680.247L472.103+652.772L444.628+637.746L472.103+622.719L487.129+595.244L502.156+622.719L529.631+637.746L502.156+652.772L487.129+680.247Z" opacity="1" fill="url(#LinearGradient_25)"/>
<path d="M366.709+695.702L366.937+696.118L367.353+696.346L366.937+696.573L366.709+696.99L366.481+696.573L366.065+696.346L366.481+696.118L366.709+695.702Z" opacity="1" fill="url(#LinearGradient_26)"/>
<path d="M564.404+240.423L564.683+240.906L564.962+241.389L564.404+241.389L563.847+241.389L564.126+240.906L564.404+240.423Z" opacity="1" fill="url(#LinearGradient_27)"/>
<path d="M573.106+165.816L596.391+240.478L619.677+315.141L571.039+314.465L522.402+313.788L547.754+239.802L573.106+165.816Z" opacity="1" fill="url(#LinearGradient_28)"/>
</g>
</svg>
